<svg width="200" height="200" viewBox="0 0 200 200" fill="none" xmlns="http://www.w3.org/2000/svg">
<rect width="200" height="200" fill="white"/>
<path opacity="0.1" d="M100 0C44.8 0 0 44.8 0 100C0 155.2 44.8 200 100 200C155.2 200 200 155.2 200 100C200 44.8 155.2 0 100 0Z" fill="#0DB4C5"/>
<path opacity="0.25" d="M178 99.9999C178 56.9208 143.079 21.9999 99.9999 21.9999C56.9208 21.9999 21.9999 56.9208 21.9999 99.9999C21.9999 143.079 56.9208 178 99.9999 178C143.079 178 178 143.079 178 99.9999Z" fill="#0DB4C5"/>
<path opacity="0.5" d="M99.9998 40C66.9138 40 39.9998 66.8129 39.9998 100C39.9998 133.086 66.8126 160 99.9998 160C133.086 160 160 133.187 160 100C160 66.914 133.086 40 99.9998 40Z" fill="#0098A7"/>
<path d="M146 100C146 74.5339 125.366 54 100 54C74.5341 54 54.0002 74.6345 54.0002 100C54.0002 125.466 74.6348 146 100 146C125.466 146 146 125.466 146 100Z" fill="black"/>
<mask id="mask0" mask-type="alpha" maskUnits="userSpaceOnUse" x="54" y="54" width="92" height="92">
<path d="M146 100C146 125.405 125.405 146 100 146C74.5949 146 54 125.405 54 100C54 74.5949 74.5949 54 100 54C125.405 54 146 74.5949 146 100Z" fill="#C4C4C4"/>
</mask>
<g mask="url(#mask0)">
<path d="M55.2333 104.961C55.4055 108.507 58.9527 106.855 60.5369 105.753C62.0523 104.686 62.5 105.581 62.6376 103.515C62.741 102.139 62.8786 100.796 62.8098 99.419C60.5023 99.2123 58.0227 99.7632 56.1284 101.14C55.1299 101.829 53.339 104.101 55.233 104.961H55.2333ZM125.937 148.545C128.657 150.231 133.651 155.327 129.553 157.805C125.626 161.386 123.423 153.846 119.979 152.813C121.459 150.782 123.319 148.923 125.937 148.545ZM77.2397 154.294C74.0368 154.776 72.2459 157.667 69.5599 159.148C67.0457 160.628 66.0815 158.666 65.8747 158.253C65.4961 158.081 65.5304 158.425 64.9105 157.805C62.5688 154.122 67.3213 151.437 69.8009 149.612C73.2448 148.923 75.4146 151.918 77.2397 154.294ZM141.055 104.514C140.883 108.06 137.336 106.407 135.752 105.306C134.236 104.238 133.789 105.134 133.651 103.068C133.547 101.691 133.41 100.348 133.479 98.9714C135.786 98.7648 138.266 99.3157 140.16 100.693C141.124 101.381 142.95 103.653 141.055 104.514Z" fill="#F6D2A2"/>
<path d="M131.653 61.275C143.948 56.9374 134.34 40.1033 123.629 47.539C116.603 41.5144 106.926 40.4127 96.7665 40.4127C86.8142 41.2051 77.3431 43.0296 70.7309 48.8129C60.0542 41.9274 50.2049 58.4518 62.7406 62.6177C59.2279 76.2501 63.2225 90.1582 62.6714 104.032C62.1549 116.494 58.8832 133.19 65.8055 144.379C71.6948 153.949 84.3681 157.358 94.8034 157.737C108.131 158.218 124.283 154.948 130.758 142.038C136.957 129.748 135.235 114.429 134.443 101.175C133.651 87.7829 135.131 74.1847 131.653 61.2747L131.653 61.275Z" fill="#69D7E2"/>
<path d="M141.985 102.414C141.641 101.691 140.986 100.865 140.367 100.417C138.782 99.2811 136.75 98.6614 134.649 98.5927C134.581 96.4582 134.512 94.1171 134.512 91.1566V88.4713C134.477 80.0026 134.374 76.2846 133.892 71.6369C133.513 67.988 132.927 64.6143 132.101 61.4471C134.891 60.3799 136.716 58.6243 137.439 56.3519C138.128 54.252 137.784 51.8767 136.613 49.7768C135.407 47.7111 133.479 46.1618 131.24 45.5425C128.829 44.8882 126.212 45.3703 123.698 47.0569C121.459 45.1637 118.877 43.7177 115.984 42.6159C110.852 40.723 104.894 40 96.8011 40V40.3442L96.7665 40C88.1224 40.6884 81.7166 42.0311 76.4131 44.6131C74.2778 45.6458 72.3839 46.8851 70.7309 48.3311C68.1821 46.7476 65.5303 46.3688 63.0853 47.1264C60.8124 47.8148 58.8493 49.4329 57.6783 51.5328C56.5073 53.6327 56.2318 56.0426 57.0239 58.1083C57.8159 60.1736 59.6411 61.7917 62.362 62.7902C61.5011 66.2669 61.0534 69.9507 60.9846 74.013C60.9155 77.9719 61.0876 81.1393 61.7075 88.2995C62.1553 93.6357 62.3274 96.0798 62.3966 99.0406C60.0546 98.9372 57.7129 99.5569 55.9562 100.831C55.3363 101.278 54.6476 102.07 54.3378 102.827C53.8901 103.792 54.0623 104.652 54.9577 105.168C55.0954 106.821 56.0254 107.578 57.4374 107.44C58.4704 107.337 59.7102 106.786 60.7779 106.029C61.0034 105.866 61.2459 105.727 61.5011 105.616C61.6045 105.581 61.6733 105.547 61.7767 105.512C61.7767 105.512 61.9831 105.444 62.0522 105.409C62.1553 105.375 62.2586 105.34 62.3274 105.271C62.2586 106.89 62.121 108.576 61.8109 112.432C61.4666 116.77 61.2944 119.145 61.2256 121.796C60.9155 131.642 62.0865 138.802 65.5991 144.483C66.7013 146.273 68.0445 147.856 69.6287 149.302C69.3186 149.509 68.01 150.473 67.5968 150.783C66.1502 151.884 65.1518 152.814 64.5661 153.846C63.8086 155.189 63.8086 156.532 64.6695 157.943L64.704 157.978L64.7386 158.012C65.1172 158.391 65.3239 158.494 65.5995 158.494H65.7022C65.7367 158.563 65.7713 158.597 65.8059 158.666C65.9089 158.838 66.0123 158.976 66.1157 159.114C66.9766 160.112 68.1818 160.353 69.8005 159.389C70.6614 158.942 71.2813 158.425 72.5899 157.324L72.6591 157.254C74.7598 155.465 75.7928 154.811 77.3427 154.569L77.8938 154.466C78.1003 154.57 78.307 154.639 78.548 154.742C83.4384 156.704 89.1206 157.771 94.8722 157.978C102.311 158.253 109.474 157.324 115.535 155.12C117.154 154.535 118.67 153.846 120.116 153.089C121.012 153.433 121.769 154.156 123.216 155.843C123.284 155.912 123.284 155.912 123.319 155.981C123.388 156.05 123.388 156.085 123.422 156.119C123.491 156.222 123.594 156.291 123.663 156.394C124.8 157.737 125.558 158.391 126.419 158.77C127.555 159.251 128.657 159.01 129.793 157.978C131.791 156.738 131.929 154.811 130.62 152.607C129.69 151.058 128.071 149.44 126.556 148.407C128.347 146.652 129.897 144.552 131.102 142.176C134.408 135.566 135.683 127.855 135.614 117.94C135.579 114.429 135.441 111.365 135.063 105.512V105.341C135.235 105.409 135.407 105.513 135.579 105.65C136.647 106.373 137.887 106.958 138.92 107.062C140.332 107.2 141.262 106.442 141.399 104.79C142.26 104.239 142.432 103.378 141.985 102.414L141.985 102.414ZM131.034 46.2651C133.1 46.816 134.891 48.262 135.993 50.1898C137.095 52.1176 137.405 54.2866 136.785 56.2144C136.131 58.2455 134.478 59.8636 131.895 60.8275C131.38 58.9843 130.77 57.1688 130.07 55.388C131.068 54.5275 131.55 53.4602 130.758 51.9458C129.966 50.4307 128.589 50.2586 127.176 50.7061C126.281 49.5356 125.282 48.5029 124.249 47.539C126.522 46.093 128.864 45.68 131.034 46.2651ZM57.6099 57.9012C56.8866 56.0419 57.1276 53.839 58.2298 51.9112C59.3316 49.9831 61.1226 48.4687 63.2578 47.849C65.4619 47.1948 67.8381 47.5044 70.1801 48.8817C68.8259 50.0985 67.6233 51.474 66.5983 52.9785C64.8074 52.0488 62.9823 51.8767 61.9492 53.7699C60.8816 55.8014 62.1214 57.0749 63.8777 58.0388C63.6367 58.6243 63.3954 59.2439 63.189 59.8636C62.9477 60.6208 62.7067 61.4126 62.5003 62.2044C59.9861 61.2405 58.3332 59.7603 57.6099 57.9012ZM61.777 104.824C61.7425 104.824 61.5357 104.893 61.5357 104.927C61.4327 104.961 61.3293 104.996 61.2259 105.065C60.9504 105.168 60.6748 105.34 60.3996 105.547C59.435 106.235 58.264 106.752 57.3686 106.82C56.3355 106.924 55.7502 106.476 55.6468 105.237C56.3701 104.996 56.6799 104.824 56.9554 104.411L56.4043 103.998C56.1979 104.273 55.9912 104.376 55.3712 104.583C55.3367 104.583 55.3367 104.583 55.3021 104.617C54.7513 104.307 54.648 103.825 54.9581 103.137C55.2336 102.517 55.8535 101.794 56.3701 101.416C58.023 100.211 60.2271 99.6257 62.4312 99.7632C62.4312 100.624 62.4657 101.484 62.4312 102.31C62.4312 102.414 62.4312 102.483 62.3966 102.586C62.3624 103.068 62.3624 103.275 62.3278 103.516C62.2248 104.514 62.1556 104.651 61.777 104.824ZM72.1775 156.772L72.1083 156.841C70.8343 157.943 70.2144 158.39 69.4223 158.838C68.1137 159.63 67.2182 159.458 66.5983 158.7C66.4949 158.597 66.4261 158.459 66.3573 158.356C66.3228 158.321 66.2882 158.253 66.254 158.218V158.184C66.3231 157.564 66.5641 157.117 67.184 156.153C67.2186 156.118 67.2186 156.118 67.2186 156.084C67.5972 155.533 67.7693 155.223 67.9415 154.845L67.3216 154.569C67.184 154.879 67.0118 155.155 66.6671 155.705C66.6325 155.74 66.6325 155.74 66.6325 155.774C66.013 156.669 65.7371 157.22 65.5995 157.84H65.5649H65.4615C65.3924 157.805 65.2894 157.736 65.1518 157.599C63.8086 155.464 64.8762 153.64 67.9066 151.367C68.2855 151.092 69.5599 150.197 69.9042 149.922C69.9734 149.922 70.0418 149.887 70.111 149.853C71.9704 151.437 74.1402 152.813 76.551 153.949C76.551 153.984 76.5856 154.019 76.6198 154.053C75.2078 154.397 74.1056 155.12 72.1771 156.772H72.1775ZM130.001 153.02C131.068 154.81 131.034 156.256 129.691 157.254C129.588 157.048 129.518 156.807 129.381 156.463C129.381 156.428 129.381 156.428 129.346 156.394C128.864 155.085 128.554 154.535 127.969 153.915L127.487 154.397C128.003 154.879 128.244 155.395 128.726 156.6C128.726 156.635 128.726 156.635 128.761 156.669C128.933 157.117 129.036 157.392 129.14 157.633C128.244 158.39 127.452 158.528 126.626 158.15C125.902 157.84 125.214 157.185 124.111 155.946C124.043 155.877 123.974 155.774 123.905 155.671C123.87 155.636 123.836 155.602 123.801 155.533C123.733 155.464 123.733 155.464 123.698 155.395C122.424 153.915 121.666 153.123 120.84 152.676C122.769 151.574 124.491 150.335 126.04 148.889C127.487 149.956 129.105 151.54 130.001 153.02ZM130.483 141.866C127.521 147.822 122.286 152.022 115.261 154.569C109.268 156.738 102.174 157.633 94.8384 157.358C82.1993 156.91 71.2478 152.504 66.1164 144.173C62.6725 138.63 61.5357 131.573 61.8458 121.865C61.9492 119.214 62.0868 116.838 62.4312 112.501C62.8101 107.612 62.9135 106.201 63.0168 103.998C63.0856 102.414 63.0856 100.796 63.0514 99.0748C62.9823 96.0452 62.8101 93.6353 62.3624 88.2304C61.7425 81.0698 61.5703 77.9369 61.6391 74.0123C61.7428 68.8489 62.4312 64.3043 63.8777 60.0015C66.2187 53.0123 70.5242 48.2959 76.7232 45.2324C81.9234 42.6853 88.2258 41.3769 96.8011 40.6881C104.826 40.6881 110.68 41.4111 115.743 43.2701C121.804 45.5079 126.315 49.4322 129.415 55.4571C131.412 60.3454 132.583 65.6127 133.203 71.6715C133.685 76.2846 133.789 80.0026 133.823 88.4367V91.1221C133.858 95.2877 133.926 98.2139 134.099 101.14C134.168 102.276 134.202 102.758 134.374 105.478C134.753 111.33 134.891 114.36 134.925 117.871C134.994 127.751 133.754 135.359 130.482 141.866H130.483ZM141.021 104.17C140.986 104.17 140.952 104.135 140.918 104.135C140.298 103.929 140.091 103.791 139.885 103.55L139.333 103.963C139.644 104.376 139.953 104.548 140.642 104.789C140.504 106.029 139.919 106.476 138.921 106.373C138.025 106.304 136.854 105.753 135.89 105.099C135.614 104.893 135.339 104.755 135.063 104.617C135.029 104.617 134.994 104.583 134.96 104.583C134.822 102.689 134.822 102.207 134.753 101.209L134.65 99.3499C136.579 99.3844 138.473 99.9696 139.919 101.037C140.436 101.416 141.056 102.139 141.331 102.758C141.675 103.343 141.607 103.86 141.021 104.17Z" fill="black"/>
<path d="M101.988 75.9162C102.022 77.6719 102.367 79.5996 102.057 81.4586C101.574 82.3538 100.679 82.4574 99.8871 82.8013C98.7849 82.6292 97.8549 81.9062 97.4075 80.8735C97.132 78.7736 97.4763 76.7767 97.5797 74.6769C97.5797 74.6077 98.8883 74.7114 100.059 75.0556C101.058 75.3653 101.988 75.8816 101.988 75.9162ZM92.2415 76.0537C91.2769 79.7033 93.5159 85.6588 97.2008 80.7702C96.9252 78.7045 97.2353 76.708 97.3384 74.6769C97.3729 74.5048 92.2761 75.8129 92.2415 76.0537Z" fill="white"/>
<path d="M102.401 77.5343C102.332 76.5013 102.298 76.0883 102.298 75.572V75.3311L102.057 75.262L97.7173 73.9196V73.6784L97.2696 73.7821H97.235V73.8163L92.3449 75.0556L92.1727 75.0902L92.1036 75.262C91.3461 77.0868 91.5183 79.8409 92.4825 81.5278C93.5847 83.4555 95.3753 83.4898 97.2008 81.2865C97.4551 81.7773 97.8215 82.2013 98.2701 82.5243C98.7188 82.8473 99.2372 83.0602 99.7834 83.1459H99.8871L99.9902 83.1113C100.128 83.0422 100.266 83.0076 100.507 82.9046C100.542 82.9046 100.542 82.9046 100.576 82.8701C101.574 82.5259 101.988 82.2504 102.332 81.5965L102.367 81.562V81.4932C102.47 80.8735 102.504 80.2193 102.504 79.4966C102.504 78.98 102.47 78.4979 102.401 77.5343ZM96.8906 76.2604C96.8561 76.8801 96.8218 77.121 96.7876 77.4652C96.7185 78.7391 96.7185 79.703 96.8222 80.6669C95.2031 82.7325 93.9291 82.7325 93.0682 81.1832C92.2415 79.7375 92.069 77.2931 92.6893 75.6753L97.0282 74.5735C96.994 75.0211 96.9598 75.4686 96.8906 76.2604ZM101.712 81.3556C101.471 81.7686 101.161 81.9753 100.335 82.2508C100.3 82.2508 100.3 82.2508 100.266 82.285C100.059 82.3541 99.9214 82.4225 99.818 82.4571C98.888 82.285 98.0962 81.6653 97.7173 80.8048C97.6139 79.8751 97.6139 78.9112 97.6827 77.6376C97.7173 77.2931 97.7173 77.0522 97.7864 76.4325C97.8549 75.6411 97.8895 75.159 97.8895 74.7114L101.643 75.8474C101.643 76.295 101.678 76.708 101.747 77.6031C101.816 78.5328 101.85 79.0145 101.85 79.5654C101.85 80.2193 101.815 80.8048 101.712 81.3556Z" fill="black"/>
<path d="M71.5109 60.9177C74.6792 73.2419 94.4128 70.0748 93.6553 57.716C92.7595 42.9128 68.4802 45.7702 71.5105 60.9177" fill="white"/>
<path d="M93.9996 57.6815C93.7929 54.101 92.2087 51.3127 89.5915 49.557C87.2495 47.9734 84.15 47.3538 81.085 47.7322C78.0201 48.1459 75.1957 49.5228 73.336 51.6918C71.2699 54.1013 70.4778 57.2685 71.2011 60.9177L71.5109 60.8486L71.2011 60.9177C74.4382 73.5861 94.7571 70.5224 93.9996 57.6815ZM71.8207 60.8489C71.132 57.3721 71.8898 54.4114 73.8183 52.1736C75.5747 50.1425 78.2265 48.8001 81.1538 48.4213C84.0811 48.0426 87.0085 48.628 89.2129 50.1425C91.6576 51.7951 93.1387 54.3771 93.3451 57.7851C94.0684 69.7997 74.886 72.6917 71.821 60.8489H71.8207Z" fill="black"/>
<path d="M76.9524 62.5013C78.7973 62.5013 80.2929 60.8829 80.2929 58.8866C80.2929 56.8903 78.7973 55.2719 76.9524 55.2719C75.1075 55.2719 73.6119 56.8903 73.6119 58.8866C73.6119 60.8829 75.1075 62.5013 76.9524 62.5013Z" fill="black"/>
<path d="M78.4674 60.6419C78.9049 60.6419 79.2595 60.2258 79.2595 59.7126C79.2595 59.1993 78.9049 58.7832 78.4674 58.7832C78.03 58.7832 77.6754 59.1993 77.6754 59.7126C77.6754 60.2258 78.03 60.6419 78.4674 60.6419Z" fill="white"/>
<path d="M99.1857 58.6136C101.631 72.7626 124.774 69.01 121.433 54.7577C118.437 41.9513 98.359 45.4972 99.1857 58.6136Z" fill="white"/>
<path d="M121.743 54.6889C118.678 41.5037 98.0153 45.1184 98.8416 58.6477V58.6823C99.9777 65.3608 105.936 68.7691 112.514 67.6673C115.51 67.151 118.196 65.7053 119.952 63.5709C121.881 61.1952 122.569 58.1314 121.743 54.6889ZM119.436 63.1575C117.783 65.1544 115.269 66.5313 112.41 67.0134C106.177 68.0461 100.598 64.8444 99.4958 58.579C98.7379 45.8414 118.23 42.433 121.123 54.8264C121.881 58.0969 121.261 60.9543 119.436 63.1575Z" fill="black"/>
<path d="M104.868 61.6085C106.675 61.6085 108.14 59.9902 108.14 57.9939C108.14 55.9975 106.675 54.3792 104.868 54.3792C103.061 54.3792 101.596 55.9975 101.596 57.9939C101.596 59.9902 103.061 61.6085 104.868 61.6085Z" fill="black"/>
<path d="M106.383 59.7492C106.802 59.7492 107.141 59.3331 107.141 58.8199C107.141 58.3066 106.802 57.8905 106.383 57.8905C105.965 57.8905 105.626 58.3066 105.626 58.8199C105.626 59.3331 105.965 59.7492 106.383 59.7492Z" fill="white"/>
<path d="M92.9527 68.6167C90.2318 68.8576 88.0277 72.0592 89.44 74.6067C91.2994 77.9805 95.4665 74.297 98.0495 74.6412C101.046 74.7104 103.491 77.8084 105.867 75.1921C108.519 72.3001 104.731 69.4772 101.734 68.2379L92.9527 68.6167Z" fill="#F6D2A2"/>
<path d="M106.212 70.9232C105.282 69.7527 103.663 68.6855 101.907 67.9624L101.838 67.9279H101.769L92.9527 68.2725C89.8874 68.5479 87.6837 72.0938 89.1642 74.7788C89.7498 75.8118 90.5419 76.3281 91.6095 76.3969C92.4013 76.4315 93.2283 76.2594 94.5023 75.8118C94.6057 75.7772 94.7433 75.7427 94.9155 75.6739C96.6376 75.0888 97.3263 74.9167 98.015 75.02H98.0496C98.8759 75.02 99.5649 75.2609 100.874 75.7772C102.32 76.3624 102.768 76.5348 103.491 76.6032C104.49 76.6724 105.351 76.3281 106.143 75.4676C107.486 73.987 107.417 72.4035 106.212 70.9232ZM105.626 74.9855C104.972 75.7085 104.317 75.9497 103.525 75.9151C102.905 75.8806 102.492 75.7085 101.115 75.1576C99.7371 74.5725 98.9796 74.3661 98.0841 74.3316C97.2233 74.2279 96.5 74.4004 94.6745 75.02C94.5023 75.0888 94.3647 75.1234 94.2613 75.1576C91.7471 76.0181 90.5419 75.9494 89.7153 74.4346C88.4754 72.1971 90.3697 69.1676 92.9527 68.9267L101.666 68.5821C103.319 69.2709 104.8 70.269 105.661 71.3366C106.694 72.5756 106.728 73.8149 105.626 74.9855Z" fill="#231F20"/>
<path d="M102.423 67.1365C101.356 63.2118 92.4016 63.7973 92.608 68.4791C93.0558 71.9559 103.457 71.0262 102.423 67.1365Z" fill="black"/>
</g>
<mask id="mask1" mask-type="alpha" maskUnits="userSpaceOnUse" x="40" y="40" width="120" height="85">
<rect x="40" y="40" width="120" height="85" fill="#C4C4C4"/>
</mask>
<g mask="url(#mask1)">
<path d="M55.2333 104.961C55.4055 108.507 58.9527 106.855 60.5369 105.753C62.0523 104.686 62.5 105.581 62.6376 103.515C62.741 102.139 62.8786 100.796 62.8098 99.419C60.5023 99.2123 58.0227 99.7632 56.1284 101.14C55.1299 101.829 53.339 104.101 55.233 104.961H55.2333ZM125.937 148.545C128.657 150.231 133.651 155.327 129.553 157.805C125.626 161.386 123.423 153.846 119.979 152.813C121.459 150.782 123.319 148.923 125.937 148.545ZM77.2397 154.294C74.0368 154.776 72.2459 157.667 69.5599 159.148C67.0457 160.628 66.0815 158.666 65.8747 158.253C65.4961 158.081 65.5304 158.425 64.9105 157.805C62.5688 154.122 67.3213 151.437 69.8009 149.612C73.2448 148.923 75.4146 151.918 77.2397 154.294ZM141.055 104.514C140.883 108.06 137.336 106.407 135.752 105.306C134.236 104.238 133.789 105.134 133.651 103.068C133.547 101.691 133.41 100.348 133.479 98.9714C135.786 98.7648 138.266 99.3157 140.16 100.693C141.124 101.381 142.95 103.653 141.055 104.514Z" fill="#F6D2A2"/>
<path d="M131.653 61.275C143.948 56.9374 134.34 40.1033 123.629 47.539C116.603 41.5144 106.926 40.4127 96.7665 40.4127C86.8142 41.2051 77.3431 43.0296 70.7309 48.8129C60.0542 41.9274 50.2049 58.4518 62.7406 62.6177C59.2279 76.2501 63.2225 90.1582 62.6714 104.032C62.1549 116.494 58.8832 133.19 65.8055 144.379C71.6948 153.949 84.3681 157.358 94.8034 157.737C108.131 158.218 124.283 154.948 130.758 142.038C136.957 129.748 135.235 114.429 134.443 101.175C133.651 87.7829 135.131 74.1847 131.653 61.2747L131.653 61.275Z" fill="#69D7E2"/>
<path d="M141.985 102.414C141.641 101.691 140.986 100.865 140.367 100.417C138.782 99.2811 136.75 98.6614 134.649 98.5927C134.581 96.4582 134.512 94.1171 134.512 91.1566V88.4713C134.477 80.0026 134.374 76.2846 133.892 71.6369C133.513 67.988 132.927 64.6143 132.101 61.4471C134.891 60.3799 136.716 58.6243 137.439 56.3519C138.128 54.252 137.784 51.8767 136.613 49.7768C135.407 47.7111 133.479 46.1618 131.24 45.5425C128.829 44.8882 126.212 45.3703 123.698 47.0569C121.459 45.1637 118.877 43.7177 115.984 42.6159C110.852 40.723 104.894 40 96.8011 40V40.3442L96.7665 40C88.1224 40.6884 81.7166 42.0311 76.4131 44.6131C74.2778 45.6458 72.3839 46.8851 70.7309 48.3311C68.1821 46.7476 65.5303 46.3688 63.0853 47.1264C60.8124 47.8148 58.8493 49.4329 57.6783 51.5328C56.5073 53.6327 56.2318 56.0426 57.0239 58.1083C57.8159 60.1736 59.6411 61.7917 62.362 62.7902C61.5011 66.2669 61.0534 69.9507 60.9846 74.013C60.9155 77.9719 61.0876 81.1393 61.7075 88.2995C62.1553 93.6357 62.3274 96.0798 62.3966 99.0406C60.0546 98.9372 57.7129 99.5569 55.9562 100.831C55.3363 101.278 54.6476 102.07 54.3378 102.827C53.8901 103.792 54.0623 104.652 54.9577 105.168C55.0954 106.821 56.0254 107.578 57.4374 107.44C58.4704 107.337 59.7102 106.786 60.7779 106.029C61.0034 105.866 61.2459 105.727 61.5011 105.616C61.6045 105.581 61.6733 105.547 61.7767 105.512C61.7767 105.512 61.9831 105.444 62.0522 105.409C62.1553 105.375 62.2586 105.34 62.3274 105.271C62.2586 106.89 62.121 108.576 61.8109 112.432C61.4666 116.77 61.2944 119.145 61.2256 121.796C60.9155 131.642 62.0865 138.802 65.5991 144.483C66.7013 146.273 68.0445 147.856 69.6287 149.302C69.3186 149.509 68.01 150.473 67.5968 150.783C66.1502 151.884 65.1518 152.814 64.5661 153.846C63.8086 155.189 63.8086 156.532 64.6695 157.943L64.704 157.978L64.7386 158.012C65.1172 158.391 65.3239 158.494 65.5995 158.494H65.7022C65.7367 158.563 65.7713 158.597 65.8059 158.666C65.9089 158.838 66.0123 158.976 66.1157 159.114C66.9766 160.112 68.1818 160.353 69.8005 159.389C70.6614 158.942 71.2813 158.425 72.5899 157.324L72.6591 157.254C74.7598 155.465 75.7928 154.811 77.3427 154.569L77.8938 154.466C78.1003 154.57 78.307 154.639 78.548 154.742C83.4384 156.704 89.1206 157.771 94.8722 157.978C102.311 158.253 109.474 157.324 115.535 155.12C117.154 154.535 118.67 153.846 120.116 153.089C121.012 153.433 121.769 154.156 123.216 155.843C123.284 155.912 123.284 155.912 123.319 155.981C123.388 156.05 123.388 156.085 123.422 156.119C123.491 156.222 123.594 156.291 123.663 156.394C124.8 157.737 125.558 158.391 126.419 158.77C127.555 159.251 128.657 159.01 129.793 157.978C131.791 156.738 131.929 154.811 130.62 152.607C129.69 151.058 128.071 149.44 126.556 148.407C128.347 146.652 129.897 144.552 131.102 142.176C134.408 135.566 135.683 127.855 135.614 117.94C135.579 114.429 135.441 111.365 135.063 105.512V105.341C135.235 105.409 135.407 105.513 135.579 105.65C136.647 106.373 137.887 106.958 138.92 107.062C140.332 107.2 141.262 106.442 141.399 104.79C142.26 104.239 142.432 103.378 141.985 102.414L141.985 102.414ZM131.034 46.2651C133.1 46.816 134.891 48.262 135.993 50.1898C137.095 52.1176 137.405 54.2866 136.785 56.2144C136.131 58.2455 134.478 59.8636 131.895 60.8275C131.38 58.9843 130.77 57.1688 130.07 55.388C131.068 54.5275 131.55 53.4602 130.758 51.9458C129.966 50.4307 128.589 50.2586 127.176 50.7061C126.281 49.5356 125.282 48.5029 124.249 47.539C126.522 46.093 128.864 45.68 131.034 46.2651ZM57.6099 57.9012C56.8866 56.0419 57.1276 53.839 58.2298 51.9112C59.3316 49.9831 61.1226 48.4687 63.2578 47.849C65.4619 47.1948 67.8381 47.5044 70.1801 48.8817C68.8259 50.0985 67.6233 51.474 66.5983 52.9785C64.8074 52.0488 62.9823 51.8767 61.9492 53.7699C60.8816 55.8014 62.1214 57.0749 63.8777 58.0388C63.6367 58.6243 63.3954 59.2439 63.189 59.8636C62.9477 60.6208 62.7067 61.4126 62.5003 62.2044C59.9861 61.2405 58.3332 59.7603 57.6099 57.9012ZM61.777 104.824C61.7425 104.824 61.5357 104.893 61.5357 104.927C61.4327 104.961 61.3293 104.996 61.2259 105.065C60.9504 105.168 60.6748 105.34 60.3996 105.547C59.435 106.235 58.264 106.752 57.3686 106.82C56.3355 106.924 55.7502 106.476 55.6468 105.237C56.3701 104.996 56.6799 104.824 56.9554 104.411L56.4043 103.998C56.1979 104.273 55.9912 104.376 55.3712 104.583C55.3367 104.583 55.3367 104.583 55.3021 104.617C54.7513 104.307 54.648 103.825 54.9581 103.137C55.2336 102.517 55.8535 101.794 56.3701 101.416C58.023 100.211 60.2271 99.6257 62.4312 99.7632C62.4312 100.624 62.4657 101.484 62.4312 102.31C62.4312 102.414 62.4312 102.483 62.3966 102.586C62.3624 103.068 62.3624 103.275 62.3278 103.516C62.2248 104.514 62.1556 104.651 61.777 104.824ZM72.1775 156.772L72.1083 156.841C70.8343 157.943 70.2144 158.39 69.4223 158.838C68.1137 159.63 67.2182 159.458 66.5983 158.7C66.4949 158.597 66.4261 158.459 66.3573 158.356C66.3228 158.321 66.2882 158.253 66.254 158.218V158.184C66.3231 157.564 66.5641 157.117 67.184 156.153C67.2186 156.118 67.2186 156.118 67.2186 156.084C67.5972 155.533 67.7693 155.223 67.9415 154.845L67.3216 154.569C67.184 154.879 67.0118 155.155 66.6671 155.705C66.6325 155.74 66.6325 155.74 66.6325 155.774C66.013 156.669 65.7371 157.22 65.5995 157.84H65.5649H65.4615C65.3924 157.805 65.2894 157.736 65.1518 157.599C63.8086 155.464 64.8762 153.64 67.9066 151.367C68.2855 151.092 69.5599 150.197 69.9042 149.922C69.9734 149.922 70.0418 149.887 70.111 149.853C71.9704 151.437 74.1402 152.813 76.551 153.949C76.551 153.984 76.5856 154.019 76.6198 154.053C75.2078 154.397 74.1056 155.12 72.1771 156.772H72.1775ZM130.001 153.02C131.068 154.81 131.034 156.256 129.691 157.254C129.588 157.048 129.518 156.807 129.381 156.463C129.381 156.428 129.381 156.428 129.346 156.394C128.864 155.085 128.554 154.535 127.969 153.915L127.487 154.397C128.003 154.879 128.244 155.395 128.726 156.6C128.726 156.635 128.726 156.635 128.761 156.669C128.933 157.117 129.036 157.392 129.14 157.633C128.244 158.39 127.452 158.528 126.626 158.15C125.902 157.84 125.214 157.185 124.111 155.946C124.043 155.877 123.974 155.774 123.905 155.671C123.87 155.636 123.836 155.602 123.801 155.533C123.733 155.464 123.733 155.464 123.698 155.395C122.424 153.915 121.666 153.123 120.84 152.676C122.769 151.574 124.491 150.335 126.04 148.889C127.487 149.956 129.105 151.54 130.001 153.02ZM130.483 141.866C127.521 147.822 122.286 152.022 115.261 154.569C109.268 156.738 102.174 157.633 94.8384 157.358C82.1993 156.91 71.2478 152.504 66.1164 144.173C62.6725 138.63 61.5357 131.573 61.8458 121.865C61.9492 119.214 62.0868 116.838 62.4312 112.501C62.8101 107.612 62.9135 106.201 63.0168 103.998C63.0856 102.414 63.0856 100.796 63.0514 99.0748C62.9823 96.0452 62.8101 93.6353 62.3624 88.2304C61.7425 81.0698 61.5703 77.9369 61.6391 74.0123C61.7428 68.8489 62.4312 64.3043 63.8777 60.0015C66.2187 53.0123 70.5242 48.2959 76.7232 45.2324C81.9234 42.6853 88.2258 41.3769 96.8011 40.6881C104.826 40.6881 110.68 41.4111 115.743 43.2701C121.804 45.5079 126.315 49.4322 129.415 55.4571C131.412 60.3454 132.583 65.6127 133.203 71.6715C133.685 76.2846 133.789 80.0026 133.823 88.4367V91.1221C133.858 95.2877 133.926 98.2139 134.099 101.14C134.168 102.276 134.202 102.758 134.374 105.478C134.753 111.33 134.891 114.36 134.925 117.871C134.994 127.751 133.754 135.359 130.482 141.866H130.483ZM141.021 104.17C140.986 104.17 140.952 104.135 140.918 104.135C140.298 103.929 140.091 103.791 139.885 103.55L139.333 103.963C139.644 104.376 139.953 104.548 140.642 104.789C140.504 106.029 139.919 106.476 138.921 106.373C138.025 106.304 136.854 105.753 135.89 105.099C135.614 104.893 135.339 104.755 135.063 104.617C135.029 104.617 134.994 104.583 134.96 104.583C134.822 102.689 134.822 102.207 134.753 101.209L134.65 99.3499C136.579 99.3844 138.473 99.9696 139.919 101.037C140.436 101.416 141.056 102.139 141.331 102.758C141.675 103.343 141.607 103.86 141.021 104.17Z" fill="black"/>
<path d="M101.988 75.9162C102.022 77.6719 102.367 79.5996 102.057 81.4586C101.574 82.3538 100.679 82.4574 99.8871 82.8013C98.7849 82.6292 97.8549 81.9062 97.4075 80.8735C97.132 78.7736 97.4763 76.7767 97.5797 74.6769C97.5797 74.6077 98.8883 74.7114 100.059 75.0556C101.058 75.3653 101.988 75.8816 101.988 75.9162ZM92.2415 76.0537C91.2769 79.7033 93.5159 85.6588 97.2008 80.7702C96.9252 78.7045 97.2353 76.708 97.3384 74.6769C97.3729 74.5048 92.2761 75.8129 92.2415 76.0537Z" fill="white"/>
<path d="M102.401 77.5343C102.332 76.5013 102.298 76.0883 102.298 75.572V75.3311L102.057 75.262L97.7173 73.9196V73.6784L97.2696 73.7821H97.235V73.8163L92.3449 75.0556L92.1727 75.0902L92.1036 75.262C91.3461 77.0868 91.5183 79.8409 92.4825 81.5278C93.5847 83.4555 95.3753 83.4898 97.2008 81.2865C97.4551 81.7773 97.8215 82.2013 98.2701 82.5243C98.7188 82.8473 99.2372 83.0602 99.7834 83.1459H99.8871L99.9902 83.1113C100.128 83.0422 100.266 83.0076 100.507 82.9046C100.542 82.9046 100.542 82.9046 100.576 82.8701C101.574 82.5259 101.988 82.2504 102.332 81.5965L102.367 81.562V81.4932C102.47 80.8735 102.504 80.2193 102.504 79.4966C102.504 78.98 102.47 78.4979 102.401 77.5343ZM96.8906 76.2604C96.8561 76.8801 96.8218 77.121 96.7876 77.4652C96.7185 78.7391 96.7185 79.703 96.8222 80.6669C95.2031 82.7325 93.9291 82.7325 93.0682 81.1832C92.2415 79.7375 92.069 77.2931 92.6893 75.6753L97.0282 74.5735C96.994 75.0211 96.9598 75.4686 96.8906 76.2604ZM101.712 81.3556C101.471 81.7686 101.161 81.9753 100.335 82.2508C100.3 82.2508 100.3 82.2508 100.266 82.285C100.059 82.3541 99.9214 82.4225 99.818 82.4571C98.888 82.285 98.0962 81.6653 97.7173 80.8048C97.6139 79.8751 97.6139 78.9112 97.6827 77.6376C97.7173 77.2931 97.7173 77.0522 97.7864 76.4325C97.8549 75.6411 97.8895 75.159 97.8895 74.7114L101.643 75.8474C101.643 76.295 101.678 76.708 101.747 77.6031C101.816 78.5328 101.85 79.0145 101.85 79.5654C101.85 80.2193 101.815 80.8048 101.712 81.3556Z" fill="black"/>
<path d="M71.5109 60.9177C74.6792 73.2419 94.4128 70.0748 93.6553 57.716C92.7595 42.9128 68.4802 45.7702 71.5105 60.9177" fill="white"/>
<path d="M93.9996 57.6815C93.7929 54.101 92.2087 51.3127 89.5915 49.557C87.2495 47.9734 84.15 47.3538 81.085 47.7322C78.0201 48.1459 75.1957 49.5228 73.336 51.6918C71.2699 54.1013 70.4778 57.2685 71.2011 60.9177L71.5109 60.8486L71.2011 60.9177C74.4382 73.5861 94.7571 70.5224 93.9996 57.6815ZM71.8207 60.8489C71.132 57.3721 71.8898 54.4114 73.8183 52.1736C75.5747 50.1425 78.2265 48.8001 81.1538 48.4213C84.0811 48.0426 87.0085 48.628 89.2129 50.1425C91.6576 51.7951 93.1387 54.3771 93.3451 57.7851C94.0684 69.7997 74.886 72.6917 71.821 60.8489H71.8207Z" fill="black"/>
<path d="M76.9524 62.5013C78.7973 62.5013 80.2929 60.8829 80.2929 58.8866C80.2929 56.8903 78.7973 55.2719 76.9524 55.2719C75.1075 55.2719 73.6119 56.8903 73.6119 58.8866C73.6119 60.8829 75.1075 62.5013 76.9524 62.5013Z" fill="black"/>
<path d="M78.4674 60.6419C78.9049 60.6419 79.2595 60.2258 79.2595 59.7126C79.2595 59.1993 78.9049 58.7832 78.4674 58.7832C78.03 58.7832 77.6754 59.1993 77.6754 59.7126C77.6754 60.2258 78.03 60.6419 78.4674 60.6419Z" fill="white"/>
<path d="M99.1857 58.6136C101.631 72.7626 124.774 69.01 121.433 54.7577C118.437 41.9513 98.359 45.4972 99.1857 58.6136Z" fill="white"/>
<path d="M121.743 54.6889C118.678 41.5037 98.0153 45.1184 98.8416 58.6477V58.6823C99.9777 65.3608 105.936 68.7691 112.514 67.6673C115.51 67.151 118.196 65.7053 119.952 63.5709C121.881 61.1952 122.569 58.1314 121.743 54.6889ZM119.436 63.1575C117.783 65.1544 115.269 66.5313 112.41 67.0134C106.177 68.0461 100.598 64.8444 99.4958 58.579C98.7379 45.8414 118.23 42.433 121.123 54.8264C121.881 58.0969 121.261 60.9543 119.436 63.1575Z" fill="black"/>
<path d="M104.868 61.6085C106.675 61.6085 108.14 59.9902 108.14 57.9939C108.14 55.9975 106.675 54.3792 104.868 54.3792C103.061 54.3792 101.596 55.9975 101.596 57.9939C101.596 59.9902 103.061 61.6085 104.868 61.6085Z" fill="black"/>
<path d="M106.383 59.7492C106.802 59.7492 107.141 59.3331 107.141 58.8199C107.141 58.3066 106.802 57.8905 106.383 57.8905C105.965 57.8905 105.626 58.3066 105.626 58.8199C105.626 59.3331 105.965 59.7492 106.383 59.7492Z" fill="white"/>
<path d="M92.9527 68.6167C90.2318 68.8576 88.0277 72.0592 89.44 74.6067C91.2994 77.9805 95.4665 74.297 98.0495 74.6412C101.046 74.7104 103.491 77.8084 105.867 75.1921C108.519 72.3001 104.731 69.4772 101.734 68.2379L92.9527 68.6167Z" fill="#F6D2A2"/>
<path d="M106.212 70.9232C105.282 69.7527 103.663 68.6855 101.907 67.9624L101.838 67.9279H101.769L92.9527 68.2725C89.8874 68.5479 87.6837 72.0938 89.1642 74.7788C89.7498 75.8118 90.5419 76.3281 91.6095 76.3969C92.4013 76.4315 93.2283 76.2594 94.5023 75.8118C94.6057 75.7772 94.7433 75.7427 94.9155 75.6739C96.6376 75.0888 97.3263 74.9167 98.015 75.02H98.0496C98.8759 75.02 99.5649 75.2609 100.874 75.7772C102.32 76.3624 102.768 76.5348 103.491 76.6032C104.49 76.6724 105.351 76.3281 106.143 75.4676C107.486 73.987 107.417 72.4035 106.212 70.9232ZM105.626 74.9855C104.972 75.7085 104.317 75.9497 103.525 75.9151C102.905 75.8806 102.492 75.7085 101.115 75.1576C99.7371 74.5725 98.9796 74.3661 98.0841 74.3316C97.2233 74.2279 96.5 74.4004 94.6745 75.02C94.5023 75.0888 94.3647 75.1234 94.2613 75.1576C91.7471 76.0181 90.5419 75.9494 89.7153 74.4346C88.4754 72.1971 90.3697 69.1676 92.9527 68.9267L101.666 68.5821C103.319 69.2709 104.8 70.269 105.661 71.3366C106.694 72.5756 106.728 73.8149 105.626 74.9855Z" fill="#231F20"/>
<path d="M102.423 67.1365C101.356 63.2118 92.4016 63.7973 92.608 68.4791C93.0558 71.9559 103.457 71.0262 102.423 67.1365Z" fill="black"/>
</g>
</svg>
