<svg xmlns="http://www.w3.org/2000/svg" width="518" height="79" viewBox="0 0 518 79"><defs><mask id="o423b" width="2" height="2.01" x="-1" y="-1"><path fill="#fff" d="M3.8 1.8h510.4v71.4H3.8z"/><path d="M39 2.219h440c19.33 0 35 15.67 35 35s-15.67 35-35 35H39c-19.33 0-35-15.67-35-35s15.67-35 35-35z"/></mask><filter id="o423a" width="540.2" height="103.2" x="-11.1" y="-13.1" filterUnits="userSpaceOnUse"><feOffset dy="2" in="SourceGraphic" result="FeOffset1023Out"/><feGaussianBlur in="FeOffset1023Out" result="FeGaussianBlur1024Out" stdDeviation="1.9600000000000002 1.9600000000000002"/></filter></defs><g><g><g filter="url(#o423a)"><path fill="none" stroke="#212121" stroke-opacity=".35" stroke-width=".4" d="M39 2.219h440c19.33 0 35 15.67 35 35s-15.67 35-35 35H39c-19.33 0-35-15.67-35-35s15.67-35 35-35z" mask="url(&quot;#o423b&quot;)"/><path fill="#212121" fill-opacity=".35" d="M39 2.219h440c19.33 0 35 15.67 35 35s-15.67 35-35 35H39c-19.33 0-35-15.67-35-35s15.67-35 35-35z"/></g><path fill="#f44336" d="M39 2.219h440c19.33 0 35 15.67 35 35s-15.67 35-35 35H39c-19.33 0-35-15.67-35-35s15.67-35 35-35z"/></g></g></svg>