<svg xmlns="http://www.w3.org/2000/svg" version="1.1" xmlns:xlink="http://www.w3.org/1999/xlink" xmlns:svgjs="http://svgjs.com/svgjs" width="954" height="100" preserveAspectRatio="none" viewBox="0 0 954 100"><g mask="url(&quot;#SvgjsMask1220&quot;)" fill="none"><rect width="954" height="100" x="0" y="0" fill="#0e2a47"></rect><path d="M166.87 35.61L209.31 60.11L209.31 109.11L166.87 133.61L124.43 109.11L124.43 60.11zM209.31 -37.89L251.74 -13.39L251.74 35.61L209.31 60.11L166.87 35.61L166.87 -13.39zM294.18 -37.89L336.62 -13.39L336.62 35.61L294.18 60.11L251.74 35.61L251.74 -13.39zM463.92 -37.89L506.36 -13.39L506.36 35.61L463.92 60.11L421.49 35.61L421.49 -13.39zM506.36 35.61L548.8 60.11L548.8 109.11L506.36 133.61L463.92 109.11L463.92 60.11zM591.23 35.61L633.67 60.11L633.67 109.11L591.23 133.61L548.8 109.11L548.8 60.11zM676.11 35.61L718.54 60.11L718.54 109.11L676.11 133.61L633.67 109.11L633.67 60.11zM718.54 -37.89L760.98 -13.39L760.98 35.61L718.54 60.11L676.11 35.61L676.11 -13.39zM760.98 35.61L803.42 60.11L803.42 109.11L760.98 133.61L718.54 109.11L718.54 60.11zM973.16 -37.89L1015.6 -13.39L1015.6 35.61L973.16 60.11L930.73 35.61L930.73 -13.39zM1015.6 35.61L1058.03 60.11L1058.03 109.11L1015.6 133.61L973.16 109.11L973.16 60.11z" stroke="rgba(6, 57, 107, 1)" stroke-width="2"></path><path d="M161.97 35.61 a4.9 4.9 0 1 0 9.8 0 a4.9 4.9 0 1 0 -9.8 0zM204.41 60.11 a4.9 4.9 0 1 0 9.8 0 a4.9 4.9 0 1 0 -9.8 0zM204.41 109.11 a4.9 4.9 0 1 0 9.8 0 a4.9 4.9 0 1 0 -9.8 0zM161.97 133.61 a4.9 4.9 0 1 0 9.8 0 a4.9 4.9 0 1 0 -9.8 0zM119.53 109.11 a4.9 4.9 0 1 0 9.8 0 a4.9 4.9 0 1 0 -9.8 0zM119.53 60.11 a4.9 4.9 0 1 0 9.8 0 a4.9 4.9 0 1 0 -9.8 0zM204.41 -37.89 a4.9 4.9 0 1 0 9.8 0 a4.9 4.9 0 1 0 -9.8 0zM246.84 -13.39 a4.9 4.9 0 1 0 9.8 0 a4.9 4.9 0 1 0 -9.8 0zM246.84 35.61 a4.9 4.9 0 1 0 9.8 0 a4.9 4.9 0 1 0 -9.8 0zM161.97 -13.39 a4.9 4.9 0 1 0 9.8 0 a4.9 4.9 0 1 0 -9.8 0zM289.28 -37.89 a4.9 4.9 0 1 0 9.8 0 a4.9 4.9 0 1 0 -9.8 0zM331.72 -13.39 a4.9 4.9 0 1 0 9.8 0 a4.9 4.9 0 1 0 -9.8 0zM331.72 35.61 a4.9 4.9 0 1 0 9.8 0 a4.9 4.9 0 1 0 -9.8 0zM289.28 60.11 a4.9 4.9 0 1 0 9.8 0 a4.9 4.9 0 1 0 -9.8 0zM459.02 -37.89 a4.9 4.9 0 1 0 9.8 0 a4.9 4.9 0 1 0 -9.8 0zM501.46 -13.39 a4.9 4.9 0 1 0 9.8 0 a4.9 4.9 0 1 0 -9.8 0zM501.46 35.61 a4.9 4.9 0 1 0 9.8 0 a4.9 4.9 0 1 0 -9.8 0zM459.02 60.11 a4.9 4.9 0 1 0 9.8 0 a4.9 4.9 0 1 0 -9.8 0zM416.59 35.61 a4.9 4.9 0 1 0 9.8 0 a4.9 4.9 0 1 0 -9.8 0zM416.59 -13.39 a4.9 4.9 0 1 0 9.8 0 a4.9 4.9 0 1 0 -9.8 0zM543.9 60.11 a4.9 4.9 0 1 0 9.8 0 a4.9 4.9 0 1 0 -9.8 0zM543.9 109.11 a4.9 4.9 0 1 0 9.8 0 a4.9 4.9 0 1 0 -9.8 0zM501.46 133.61 a4.9 4.9 0 1 0 9.8 0 a4.9 4.9 0 1 0 -9.8 0zM459.02 109.11 a4.9 4.9 0 1 0 9.8 0 a4.9 4.9 0 1 0 -9.8 0zM586.33 35.61 a4.9 4.9 0 1 0 9.8 0 a4.9 4.9 0 1 0 -9.8 0zM628.77 60.11 a4.9 4.9 0 1 0 9.8 0 a4.9 4.9 0 1 0 -9.8 0zM628.77 109.11 a4.9 4.9 0 1 0 9.8 0 a4.9 4.9 0 1 0 -9.8 0zM586.33 133.61 a4.9 4.9 0 1 0 9.8 0 a4.9 4.9 0 1 0 -9.8 0zM671.21 35.61 a4.9 4.9 0 1 0 9.8 0 a4.9 4.9 0 1 0 -9.8 0zM713.64 60.11 a4.9 4.9 0 1 0 9.8 0 a4.9 4.9 0 1 0 -9.8 0zM713.64 109.11 a4.9 4.9 0 1 0 9.8 0 a4.9 4.9 0 1 0 -9.8 0zM671.21 133.61 a4.9 4.9 0 1 0 9.8 0 a4.9 4.9 0 1 0 -9.8 0zM713.64 -37.89 a4.9 4.9 0 1 0 9.8 0 a4.9 4.9 0 1 0 -9.8 0zM756.08 -13.39 a4.9 4.9 0 1 0 9.8 0 a4.9 4.9 0 1 0 -9.8 0zM756.08 35.61 a4.9 4.9 0 1 0 9.8 0 a4.9 4.9 0 1 0 -9.8 0zM671.21 -13.39 a4.9 4.9 0 1 0 9.8 0 a4.9 4.9 0 1 0 -9.8 0zM798.52 60.11 a4.9 4.9 0 1 0 9.8 0 a4.9 4.9 0 1 0 -9.8 0zM798.52 109.11 a4.9 4.9 0 1 0 9.8 0 a4.9 4.9 0 1 0 -9.8 0zM756.08 133.61 a4.9 4.9 0 1 0 9.8 0 a4.9 4.9 0 1 0 -9.8 0zM968.26 -37.89 a4.9 4.9 0 1 0 9.8 0 a4.9 4.9 0 1 0 -9.8 0zM1010.7 -13.39 a4.9 4.9 0 1 0 9.8 0 a4.9 4.9 0 1 0 -9.8 0zM1010.7 35.61 a4.9 4.9 0 1 0 9.8 0 a4.9 4.9 0 1 0 -9.8 0zM968.26 60.11 a4.9 4.9 0 1 0 9.8 0 a4.9 4.9 0 1 0 -9.8 0zM925.83 35.61 a4.9 4.9 0 1 0 9.8 0 a4.9 4.9 0 1 0 -9.8 0zM925.83 -13.39 a4.9 4.9 0 1 0 9.8 0 a4.9 4.9 0 1 0 -9.8 0zM1053.13 60.11 a4.9 4.9 0 1 0 9.8 0 a4.9 4.9 0 1 0 -9.8 0zM1053.13 109.11 a4.9 4.9 0 1 0 9.8 0 a4.9 4.9 0 1 0 -9.8 0zM1010.7 133.61 a4.9 4.9 0 1 0 9.8 0 a4.9 4.9 0 1 0 -9.8 0zM968.26 109.11 a4.9 4.9 0 1 0 9.8 0 a4.9 4.9 0 1 0 -9.8 0z" fill="rgba(6, 57, 107, 1)"></path><path d="M64.76 89.31L82.08 99.31L82.08 119.31L64.76 129.31L47.44 119.31L47.44 99.31zM116.73 -0.69L134.05 9.31L134.05 29.31L116.73 39.31L99.4 29.31L99.4 9.31zM151.37 -0.69L168.69 9.31L168.69 29.31L151.37 39.31L134.05 29.31L134.05 9.31zM255.29 59.31L272.61 69.31L272.61 89.31L255.29 99.31L237.97 89.31L237.97 69.31zM307.26 89.31L324.58 99.31L324.58 119.31L307.26 129.31L289.94 119.31L289.94 99.31zM411.18 89.31L428.5 99.31L428.5 119.31L411.18 129.31L393.86 119.31L393.86 99.31zM480.47 89.31L497.79 99.31L497.79 119.31L480.47 129.31L463.15 119.31L463.15 99.31zM497.79 -0.69L515.11 9.31L515.11 29.31L497.79 39.31L480.47 29.31L480.47 9.31zM515.11 89.31L532.43 99.31L532.43 119.31L515.11 129.31L497.79 119.31L497.79 99.31zM532.43 59.31L549.75 69.31L549.75 89.31L532.43 99.31L515.11 89.31L515.11 69.31zM584.39 29.31L601.71 39.31L601.71 59.31L584.39 69.31L567.07 59.31L567.07 39.31zM584.39 89.31L601.71 99.31L601.71 119.31L584.39 129.31L567.07 119.31L567.07 99.31zM619.03 89.31L636.36 99.31L636.36 119.31L619.03 129.31L601.71 119.31L601.71 99.31zM722.96 89.31L740.28 99.31L740.28 119.31L722.96 129.31L705.64 119.31L705.64 99.31zM740.28 -0.69L757.6 9.31L757.6 29.31L740.28 39.31L722.96 29.31L722.96 9.31zM774.92 -0.69L792.24 9.31L792.24 29.31L774.92 39.31L757.6 29.31L757.6 9.31zM844.21 -0.69L861.53 9.31L861.53 29.31L844.21 39.31L826.89 29.31L826.89 9.31zM878.85 -0.69L896.17 9.31L896.17 29.31L878.85 39.31L861.53 29.31L861.53 9.31zM913.49 59.31L930.81 69.31L930.81 89.31L913.49 99.31L896.17 89.31L896.17 69.31zM948.13 -0.69L965.45 9.31L965.45 29.31L948.13 39.31L930.81 29.31L930.81 9.31z" stroke="rgba(6, 80, 156, 0.93)" stroke-width="2"></path></g><defs><mask id="SvgjsMask1220"><rect width="954" height="100" fill="#ffffff"></rect></mask></defs></svg>